<svg width="33" height="32" viewBox="0 0 33 32" fill="none" xmlns="http://www.w3.org/2000/svg">
<path d="M22.0867 2.66667H10.9133C6.05999 2.66667 3.16666 5.56 3.16666 10.4133V21.5733C3.16666 26.44 6.05999 29.3333 10.9133 29.3333H22.0733C26.9267 29.3333 29.82 26.44 29.82 21.5867V10.4133C29.8333 5.56 26.94 2.66667 22.0867 2.66667ZM12.02 9.53334C12.4067 9.14667 13.0467 9.14667 13.4333 9.53334L19.2733 15.3733V12.1333C19.2733 11.5867 19.7267 11.1333 20.2733 11.1333C20.82 11.1333 21.2733 11.5867 21.2733 12.1333V17.7867C21.2733 17.92 21.2467 18.04 21.1933 18.1733C21.0867 18.4133 20.9 18.6133 20.6467 18.72C20.5267 18.7733 20.3933 18.8 20.26 18.8H14.6067C14.06 18.8 13.6067 18.3467 13.6067 17.8C13.6067 17.2533 14.06 16.8 14.6067 16.8H17.8467L12.02 10.9467C11.6333 10.56 11.6333 9.93334 12.02 9.53334ZM24.82 22.96C22.14 23.8533 19.3267 24.3067 16.5 24.3067C13.6733 24.3067 10.86 23.8533 8.17999 22.96C7.65999 22.7867 7.37999 22.2133 7.55332 21.6933C7.72666 21.1733 8.28666 20.88 8.81999 21.0667C13.78 22.72 19.2333 22.72 24.1933 21.0667C24.7133 20.8933 25.2867 21.1733 25.46 21.6933C25.62 22.2267 25.34 22.7867 24.82 22.96Z" fill="#283B51"/>
</svg>
