<svg width="33" height="32" viewBox="0 0 33 32" fill="none" xmlns="http://www.w3.org/2000/svg">
<path d="M22.0867 2.66667H10.9133C6.05999 2.66667 3.16666 5.56 3.16666 10.4133V21.5733C3.16666 26.44 6.05999 29.3333 10.9133 29.3333H22.0733C26.9267 29.3333 29.82 26.44 29.82 21.5867V10.4133C29.8333 5.56 26.94 2.66667 22.0867 2.66667ZM12.02 17.08L17.86 11.24H14.62C14.0733 11.24 13.62 10.7867 13.62 10.24C13.62 9.69334 14.0733 9.24 14.62 9.24H20.2733C20.4067 9.24 20.5267 9.26667 20.66 9.32C20.9 9.42667 21.1 9.61334 21.2067 9.86667C21.26 9.98667 21.2867 10.12 21.2867 10.2533V15.9067C21.2867 16.4533 20.8333 16.9067 20.2867 16.9067C19.74 16.9067 19.2867 16.4533 19.2867 15.9067V12.6667L13.4333 18.4933C13.2333 18.6933 12.98 18.7867 12.7267 18.7867C12.4733 18.7867 12.22 18.6933 12.02 18.4933C11.6333 18.1067 11.6333 17.4667 12.02 17.08ZM24.82 22.96C22.14 23.8533 19.3267 24.3067 16.5 24.3067C13.6733 24.3067 10.86 23.8533 8.17999 22.96C7.65999 22.7867 7.37999 22.2133 7.55332 21.6933C7.72666 21.1733 8.28666 20.88 8.81999 21.0667C13.78 22.72 19.2333 22.72 24.1933 21.0667C24.7133 20.8933 25.2867 21.1733 25.46 21.6933C25.62 22.2267 25.34 22.7867 24.82 22.96Z" fill="#283B51"/>
</svg>
