<svg width="20" height="20" viewBox="0 0 20 20" fill="none" xmlns="http://www.w3.org/2000/svg">
<path d="M4.50833 18.125C3.575 18.125 2.98333 17.8083 2.60833 17.4333C1.875 16.7 1.35833 15.1417 3.00833 11.8333L3.73333 10.3917C3.825 10.2 3.825 9.79999 3.73333 9.60832L3.00833 8.16665C1.35 4.85832 1.875 3.29165 2.60833 2.56665C3.33333 1.83332 4.9 1.30832 8.2 2.96665L15.3333 6.53332C17.1083 7.41665 18.0833 8.64999 18.0833 9.99999C18.0833 11.35 17.1083 12.5833 15.3417 13.4667L8.20833 17.0333C6.59167 17.8417 5.39167 18.125 4.50833 18.125ZM4.50833 3.12499C4.05833 3.12499 3.70833 3.23332 3.49167 3.44999C2.88333 4.04999 3.125 5.60832 4.125 7.59999L4.85 9.04999C5.11667 9.59165 5.11667 10.4083 4.85 10.95L4.125 12.3917C3.125 14.3917 2.88333 15.9417 3.49167 16.5417C4.09167 17.15 5.65 16.9083 7.65 15.9083L14.7833 12.3417C16.0917 11.6917 16.8333 10.8333 16.8333 9.99165C16.8333 9.14999 16.0833 8.29165 14.775 7.64165L7.64167 4.08332C6.375 3.44999 5.28333 3.12499 4.50833 3.12499Z" fill="white"/>
<path d="M9.03333 10.625H4.53333C4.19167 10.625 3.90833 10.3417 3.90833 10C3.90833 9.65833 4.19167 9.375 4.53333 9.375H9.03333C9.375 9.375 9.65833 9.65833 9.65833 10C9.65833 10.3417 9.375 10.625 9.03333 10.625Z" fill="white"/>
</svg>
