<svg width="20" height="20" viewBox="0 0 20 20" fill="none" xmlns="http://www.w3.org/2000/svg">
<path d="M12.5 18.9583H7.49999C2.97499 18.9583 1.04166 17.025 1.04166 12.5V7.5C1.04166 2.97501 2.97499 1.04167 7.49999 1.04167H12.5C17.025 1.04167 18.9583 2.97501 18.9583 7.5V12.5C18.9583 17.025 17.025 18.9583 12.5 18.9583ZM7.49999 2.29167C3.65832 2.29167 2.29166 3.65834 2.29166 7.5V12.5C2.29166 16.3417 3.65832 17.7083 7.49999 17.7083H12.5C16.3417 17.7083 17.7083 16.3417 17.7083 12.5V7.5C17.7083 3.65834 16.3417 2.29167 12.5 2.29167H7.49999Z" fill="#283B51"/>
<path d="M12.3582 10.5667C12.0165 10.5667 11.7332 10.2833 11.7332 9.94167V7.03334H8.82486C8.48319 7.03334 8.19986 6.75001 8.19986 6.40834C8.19986 6.06667 8.48319 5.78334 8.82486 5.78334H12.3582C12.6999 5.78334 12.9832 6.06667 12.9832 6.40834V9.94167C12.9832 10.2833 12.6999 10.5667 12.3582 10.5667Z" fill="#283B51"/>
<path d="M7.64156 11.7417C7.48323 11.7417 7.3249 11.6833 7.1999 11.5583C6.95823 11.3167 6.95823 10.9167 7.1999 10.675L11.9166 5.95833C12.1582 5.71667 12.5582 5.71667 12.7999 5.95833C13.0416 6.2 13.0416 6.60001 12.7999 6.84168L8.08323 11.5583C7.96656 11.6833 7.7999 11.7417 7.64156 11.7417Z" fill="#283B51"/>
<path d="M9.99996 15.1917C8.24163 15.1917 6.47496 14.9084 4.79996 14.35C4.47496 14.2417 4.29995 13.8834 4.40829 13.5584C4.51662 13.2334 4.87496 13.05 5.19996 13.1667C8.29996 14.2 11.7083 14.2 14.8083 13.1667C15.1333 13.0584 15.4916 13.2334 15.6 13.5584C15.7083 13.8834 15.5333 14.2417 15.2083 14.35C13.525 14.9167 11.7583 15.1917 9.99996 15.1917Z" fill="#283B51"/>
</svg>
